<?xml version="1.0" encoding="UTF-8" standalone="no"?>
<!DOCTYPE svg PUBLIC "-//W3C//DTD SVG 1.1//EN" "http://www.w3.org/Graphics/SVG/1.1/DTD/svg11.dtd">
<svg width="100%" height="100%" viewBox="0 0 209 197" version="1.1" xmlns="http://www.w3.org/2000/svg" xmlns:xlink="http://www.w3.org/1999/xlink" xml:space="preserve" xmlns:serif="http://www.serif.com/" style="fill-rule:evenodd;clip-rule:evenodd;stroke-linecap:round;stroke-linejoin:round;stroke-miterlimit:1.5;">
    <g transform="matrix(1,0,0,1,-1163.41,-654.264)">
        <g transform="matrix(1,0,0,1,-336.284,578.201)">
            <g transform="matrix(1,0,0,1,728.866,-31.6908)">
                <path d="M919.684,194.922C927.166,191.283 938.288,186.734 942.128,178.328C945.711,170.481 942.526,157.966 931.924,159.483C927.584,160.103 922.011,164.5 919.063,166.886L919.684,194.922Z" style="fill:none;stroke:rgb(59,130,246);stroke-width:10px;"/>
            </g>
            <g transform="matrix(1,0,0,1,728.866,-31.6908)">
                <path d="M955.178,123.636C939.968,119.104 938.205,118.172 922.545,115.795C890.398,110.916 864.521,111.998 832.745,118.386" style="fill:none;stroke:rgb(59,130,246);stroke-width:10px;"/>
            </g>
            <g transform="matrix(1,0,0,1,728.866,-31.6908)">
                <path d="M849.448,205.382C849.609,208.822 849.31,209.47 849.375,212.912C849.495,219.301 849.268,225.601 849.247,231.991C849.216,241.671 848.507,258.115 835.182,258.144C825.636,258.164 815.889,252.659 812.274,243.612C810.591,239.4 809.879,233.43 809.657,229.277C809.353,223.62 809.098,209.82 809.072,209.864" style="fill:none;stroke:rgb(59,130,246);stroke-width:10px;"/>
            </g>
            <g transform="matrix(1,0,0,-1,728.463,380.293)">
                <path d="M809.516,198.441C809.533,213.433 807.979,226.93 811.773,241.488C815.098,254.241 835.86,266.172 845.791,253.151C849.863,247.812 849.46,237.911 849.533,231.991C849.665,221.339 850.256,210.585 849.757,199.944" style="fill:none;stroke:rgb(59,130,246);stroke-width:10px;"/>
            </g>
            <g transform="matrix(1,0,0,1,728.866,-31.6908)">
                <path d="M775.975,207.749C775.934,216.795 776.333,230.829 777.962,239.901C781.529,259.754 794.734,278.155 811.609,288.928C829.008,300.036 853.174,305.211 869.101,289.057C871.908,286.21 874.111,282.778 876.063,279.289C877.83,276.13 879.402,272.776 880.186,269.243C883.96,252.237 882.607,238.075 882.914,220.766" style="fill:none;stroke:rgb(59,130,246);stroke-width:10px;"/>
            </g>
            <g transform="matrix(1,0,0,-1,728.866,384.714)">
                <path d="M776.003,208.321C774.404,239.945 783.687,271.103 811.609,288.928C829.008,300.036 853.174,305.211 869.101,289.057C884.797,273.137 882.946,248.792 882.907,228.355C882.887,217.475 883.507,206.312 882.914,195.449" style="fill:none;stroke:rgb(59,130,246);stroke-width:10px;"/>
            </g>
            <g transform="matrix(1,0,0,1,728.866,-31.6908)">
                <path d="M882.367,147.01C889.092,143.678 895.885,140.487 902.658,137.255C922.043,128.007 952.353,110.786 968.708,134.381C970.174,136.497 971.131,138.954 971.929,141.402C972.829,144.164 973.597,147.02 973.769,149.92C974.094,155.387 974.073,160.909 973.409,166.346C971.694,180.398 971.77,189.182 963.326,200.495C955.441,211.06 943.196,215.916 932.386,220.835C929.655,222.077 919.519,225 917.775,228.162C916.203,231.011 917.113,234.64 916.958,237.89C916.215,253.388 919.481,267.861 904.171,276.399C898.684,279.458 893.076,282.32 887.322,284.84C877.325,289.219 867.271,293.517 856.955,297.078" style="fill:none;stroke:rgb(59,130,246);stroke-width:10px;"/>
            </g>
            <g transform="matrix(1,0,0,1,730.252,-32.5923)">
                <circle cx="944.707" cy="274.205" r="6.957" style="fill:none;stroke:rgb(59,130,246);stroke-width:7px;"/>
            </g>
        </g>
    </g>
</svg>
